<svg width="99" height="12" viewBox="0 0 99 12" fill="none" xmlns="http://www.w3.org/2000/svg">
<path d="M6.07444 11.55C9.42927 11.55 12.1489 8.96445 12.1489 5.775C12.1489 2.58555 9.42927 0 6.07444 0C2.71962 0 0 2.58555 0 5.775C0 8.96445 2.71962 11.55 6.07444 11.55Z" fill="url(#paint0_linear_69_563)"/>
<path d="M25.5994 5.775C25.5994 8.96445 22.8798 11.55 19.525 11.55C16.1702 11.55 13.4506 8.96445 13.4506 5.775C13.4506 2.58555 16.1702 0 19.525 0C22.8798 0 25.5994 2.58555 25.5994 5.775Z" fill="url(#paint1_linear_69_563)"/>
<path d="M32.9756 11.55C36.3304 11.55 39.05 8.96445 39.05 5.775C39.05 2.58555 36.3304 0 32.9756 0C29.6207 0 26.9011 2.58555 26.9011 5.775C26.9011 8.96445 29.6207 11.55 32.9756 11.55Z" fill="url(#paint2_linear_69_563)"/>
<path d="M47.586 0.944694C47.586 0.422965 47.1526 0 46.6179 0C46.0833 0 45.6499 0.422965 45.6499 0.944694V10.4966C45.6499 11.0183 46.0833 11.4413 46.6179 11.4413C47.1526 11.4413 47.586 11.0183 47.586 10.4966V6.71782H54.685V10.4966C54.685 11.0183 55.1184 11.4413 55.653 11.4413C56.1877 11.4413 56.6211 11.0183 56.6211 10.4966V0.944694C56.6211 0.422965 56.1877 0 55.653 0C55.1184 0 54.685 0.422965 54.685 0.944694V4.82843H47.586V0.944694Z" fill="white"/>
<path d="M58.8798 0C59.4145 0 59.8479 0.422965 59.8479 0.944694V10.4966C59.8479 11.0183 59.4145 11.4413 58.8798 11.4413C58.3452 11.4413 57.9118 11.0183 57.9118 10.4966V0.944694C57.9118 0.422965 58.3452 0 58.8798 0Z" fill="white"/>
<path d="M83.7263 0.944694C83.7263 1.46642 83.2929 1.88939 82.7583 1.88939H73.7232C73.1885 1.88939 72.7551 1.46642 72.7551 0.944694C72.7551 0.422965 73.1885 0 73.7232 0H82.7583C83.2929 0 83.7263 0.422965 83.7263 0.944694Z" fill="white"/>
<path d="M67.162 0C70.0698 0 71.8947 1.92506 71.8947 3.77877V7.13769C71.8947 8.3429 71.5462 9.46154 70.684 10.2722C69.827 11.0779 68.6088 11.4413 67.162 11.4413H61.8917C61.357 11.4413 60.9235 11.0183 60.9235 10.4966C60.9235 9.97487 61.3569 9.5519 61.8916 9.5519H67.162C68.2966 9.5519 68.9608 9.26878 69.3407 8.91155C69.7154 8.55926 69.9586 7.99843 69.9586 7.13769V3.77877C69.9586 3.1549 69.202 1.88939 67.162 1.88939H61.8917C61.357 1.88939 60.9235 1.46642 60.9235 0.944694C60.9235 0.422965 61.3569 0 61.8916 0H67.162Z" fill="white"/>
<path d="M83.7263 5.77313C83.7263 6.29486 83.2929 6.71782 82.7583 6.71782H73.7232C73.1885 6.71782 72.7551 6.29486 72.7551 5.77313C72.7551 5.2514 73.1885 4.82843 73.7232 4.82843H82.7583C83.2929 4.82843 83.7263 5.2514 83.7263 5.77313Z" fill="white"/>
<path d="M82.7583 11.3363C83.2929 11.3363 83.7263 10.9134 83.7263 10.3916C83.7263 9.8699 83.2929 9.44694 82.7583 9.44694H73.7232C73.1885 9.44694 72.7551 9.8699 72.7551 10.3916C72.7551 10.9134 73.1885 11.3363 73.7232 11.3363H82.7583Z" fill="white"/>
<path d="M86.9531 0.944694C86.9531 0.422965 86.5197 0 85.9851 0C85.4504 0 85.017 0.422965 85.017 0.944694V10.4966C85.017 11.0183 85.4504 11.4413 85.9851 11.4413C86.5197 11.4413 86.9531 11.0183 86.9531 10.4966V0.944694Z" fill="white"/>
<path d="M98.9999 0.944694C98.9999 0.422965 98.5665 0 98.0318 0C97.4972 0 97.0638 0.422965 97.0638 0.944694V10.4966C97.0638 11.0183 97.4972 11.4413 98.0318 11.4413C98.5665 11.4413 98.9999 11.0183 98.9999 10.4966V0.944694Z" fill="white"/>
<path d="M90.1831 6.71967C89.8038 6.72297 89.4058 6.72141 88.9934 6.71977C88.8814 6.7202 88.7671 6.72061 88.6504 6.72095C88.518 6.72131 88.3826 6.72156 88.2438 6.72156C87.7092 6.72156 87.2758 6.2986 87.2758 5.77687V5.77313C87.2758 5.2514 87.7092 4.82843 88.2438 4.82843C88.505 4.82843 88.7545 4.82931 88.9934 4.83023C89.4058 4.82859 89.8038 4.82702 90.1831 4.83033C90.5633 4.827 90.9135 4.81841 91.2405 4.79902C92.0591 4.75045 92.5912 4.63831 92.9572 4.45101C93.5316 4.15707 94.0521 3.48015 94.0521 0.944694C94.0521 0.422965 94.4855 0 95.0201 0C95.5548 0 95.9882 0.422965 95.9882 0.944694C95.9882 3.23142 95.6028 4.84876 94.4085 5.775C95.6028 6.70124 95.9882 8.31858 95.9882 10.6053C95.9882 11.127 95.5548 11.55 95.0201 11.55C94.4855 11.55 94.0521 11.127 94.0521 10.6053C94.0521 8.06985 93.5316 7.39292 92.9572 7.09899C92.5912 6.91168 92.0591 6.79954 91.2405 6.75098C90.9135 6.73158 90.5633 6.723 90.1831 6.71967Z" fill="white"/>
<defs>
<linearGradient id="paint0_linear_69_563" x1="0" y1="5.775" x2="39.05" y2="5.775" gradientUnits="userSpaceOnUse">
<stop stop-color="white"/>
<stop offset="1" stop-color="white" stop-opacity="0"/>
</linearGradient>
<linearGradient id="paint1_linear_69_563" x1="0" y1="5.775" x2="39.05" y2="5.775" gradientUnits="userSpaceOnUse">
<stop stop-color="white"/>
<stop offset="1" stop-color="white" stop-opacity="0"/>
</linearGradient>
<linearGradient id="paint2_linear_69_563" x1="0" y1="5.775" x2="39.05" y2="5.775" gradientUnits="userSpaceOnUse">
<stop stop-color="white"/>
<stop offset="1" stop-color="white" stop-opacity="0"/>
</linearGradient>
</defs>
</svg>
