<svg width="81" height="25" viewBox="0 0 81 25" fill="none" xmlns="http://www.w3.org/2000/svg">
<path d="M16.7548 7.50806L11.7818 0L6.80873 7.50806L11.7818 15.0161L16.7548 7.50806Z" fill="white"/>
<path d="M9.94608 15.9171L4.97304 8.40903L0 15.9171L4.97304 23.4251L9.94608 15.9171Z" fill="white"/>
<path d="M18.724 8.40903L23.697 15.9171L18.724 23.4251L13.751 15.9171L18.724 8.40903Z" fill="white"/>
<path d="M43.9751 20.3114C44.0568 20.3889 44.1274 20.4617 44.19 20.5554V20.6555H44.2567L44.2776 20.5825C44.3482 20.438 44.4688 20.358 44.5991 20.2715L44.5997 20.2712C44.6077 20.2658 44.6158 20.2605 44.6239 20.2551C44.6756 20.2505 44.7035 20.248 44.7314 20.2466C44.7641 20.245 44.7969 20.2449 44.8679 20.2447L44.9989 20.243C45.1845 20.2609 45.2886 20.3174 45.4165 20.4512C45.5418 20.6251 45.5682 20.7625 45.566 20.974L45.566 21.049C45.5659 21.1305 45.5654 21.2119 45.5649 21.2933C45.5648 21.35 45.5647 21.4066 45.5646 21.4632C45.5644 21.6119 45.5637 21.7606 45.563 21.9094C45.5623 22.0612 45.562 22.2131 45.5616 22.365C45.5609 22.6628 45.5597 22.9606 45.5584 23.2583H44.8241L44.8221 23.0619C44.8198 22.8474 44.8173 22.633 44.8145 22.4186C44.8128 22.2886 44.8113 22.1586 44.81 22.0286C44.8088 21.9031 44.8072 21.7776 44.8055 21.6521C44.8049 21.6043 44.8044 21.5565 44.804 21.5087C44.8034 21.4416 44.8024 21.3745 44.8014 21.3074L44.8 21.1917C44.7907 21.0894 44.7674 21.0151 44.724 20.9225L44.5252 20.9095C44.4899 20.913 44.4718 20.9148 44.4568 20.9226C44.441 20.9308 44.4288 20.9458 44.4035 20.9765C44.3442 21.0775 44.3436 21.1491 44.3425 21.2635L44.3424 21.2733L44.3414 21.3384C44.3404 21.4092 44.3401 21.48 44.3398 21.5508C44.3392 21.6 44.3386 21.6491 44.3379 21.6983C44.3364 21.8276 44.3354 21.9568 44.3345 22.0861C44.3336 22.2082 44.3322 22.3304 44.3308 22.4525L44.3304 22.482C44.3276 22.7408 44.3254 22.9995 44.3235 23.2583H43.5558L43.5538 23.0547C43.5516 22.8328 43.549 22.6109 43.5462 22.389C43.5446 22.2545 43.543 22.1199 43.5417 21.9854C43.5405 21.8555 43.539 21.7257 43.5372 21.5959C43.5366 21.5464 43.5361 21.4968 43.5357 21.4472C43.5351 21.3779 43.5341 21.3085 43.5331 21.2392L43.5317 21.1195C43.5307 21.0712 43.5302 21.0454 43.5223 21.0222C43.5134 20.9957 43.495 20.9723 43.4557 20.9225C43.3554 20.9113 43.2853 20.9043 43.1887 20.9225C43.0897 21.0151 43.0577 21.1129 43.0499 21.2479L43.0483 21.3604L43.0463 21.4879L43.0446 21.6257C43.0439 21.6727 43.0432 21.7197 43.0425 21.7667C43.0407 21.8903 43.039 22.0139 43.0374 22.1375C43.0359 22.2531 43.0342 22.3688 43.0325 22.4845L43.032 22.5159C43.0284 22.7634 43.0251 23.0109 43.0218 23.2583H42.2875V20.3218H42.9884L43.0218 20.5888L43.0586 20.5412C43.2928 20.2512 43.621 20.1437 43.9751 20.3114Z" fill="white"/>
<path fill-rule="evenodd" clip-rule="evenodd" d="M59.7099 19.254H60.4775V23.2583H59.7766L59.7432 22.8912L59.689 22.9809C59.6038 23.1083 59.4962 23.2302 59.3464 23.2788C59.1127 23.3216 58.9346 23.3114 58.7349 23.1776C58.6011 23.0593 58.5214 22.9302 58.4541 22.7661L58.4132 22.6686C58.3086 22.3658 58.2969 22.0827 58.2976 21.7629L58.296 21.6325C58.2958 21.1961 58.3611 20.7905 58.6663 20.4592C58.8534 20.2879 59.0397 20.2377 59.2911 20.2419C59.4289 20.2633 59.5409 20.3277 59.6431 20.4219V20.4887H59.7099V19.254ZM59.1967 20.8912C59.0928 21.0789 59.0672 21.2574 59.0669 21.4698L59.0667 21.5387C59.0666 21.5864 59.0667 21.6342 59.067 21.682C59.0674 21.7543 59.067 21.8266 59.0666 21.899C59.0622 22.1022 59.06 22.2026 59.0796 22.2985C59.0988 22.392 59.1387 22.4813 59.2176 22.6577C59.2625 22.6953 59.2843 22.7135 59.3092 22.7243C59.3326 22.7345 59.3588 22.7381 59.4095 22.7452C59.5461 22.7168 59.5921 22.6677 59.6765 22.5575C59.7554 22.3318 59.7547 22.112 59.7539 21.8774L59.7538 21.8524C59.7537 21.778 59.7545 21.7036 59.7553 21.6292C59.7595 21.4241 59.7616 21.3228 59.7411 21.2263C59.7211 21.1322 59.6797 21.0427 59.5978 20.8658C59.5181 20.8026 59.4395 20.8045 59.3405 20.8087C59.309 20.813 59.291 20.8155 59.2751 20.8227C59.2541 20.8322 59.2369 20.8499 59.1967 20.8912Z" fill="white"/>
<path fill-rule="evenodd" clip-rule="evenodd" d="M35.2473 20.3197C35.5118 20.4656 35.6357 20.6657 35.725 20.9496C35.7438 21.0182 35.762 21.087 35.7792 21.1561L35.797 21.2178C35.9153 21.7625 35.8312 22.4563 35.5655 22.9425C35.4396 23.1367 35.2682 23.2374 35.0449 23.2917C34.7914 23.3271 34.611 23.2416 34.4108 23.0915L34.3774 24.2594H33.6431V20.2885H34.344L34.3774 20.6222L34.4817 20.4949C34.7042 20.243 34.9398 20.1849 35.2473 20.3197ZM34.4108 21.0226C34.3703 21.1347 34.3705 21.2519 34.3707 21.3696L34.3707 21.3908C34.3707 21.401 34.3707 21.4111 34.3706 21.4213L34.37 21.4994C34.3697 21.5539 34.3695 21.6084 34.3694 21.6629C34.3691 21.7454 34.368 21.8279 34.367 21.9105C34.3648 22.1034 34.3638 22.1994 34.3778 22.2932C34.3917 22.3861 34.4203 22.4768 34.4774 22.6573L34.4774 22.6575L34.4775 22.6577C34.6017 22.7404 34.6644 22.7399 34.8113 22.7244C34.9481 22.6209 35.002 22.5153 35.0295 22.3485C35.0515 22.1614 35.0514 21.9735 35.0512 21.7854C35.0512 21.7647 35.0512 21.744 35.0512 21.7233L35.0524 21.5987C35.0528 21.342 35.0486 21.1192 34.9239 20.8891C34.8315 20.8113 34.7642 20.7963 34.6434 20.8037C34.528 20.8365 34.4845 20.9056 34.4243 21.0011C34.4199 21.0081 34.4154 21.0153 34.4108 21.0226Z" fill="white"/>
<path fill-rule="evenodd" clip-rule="evenodd" d="M56.2659 20.2384L56.3556 20.2391C56.6606 20.2476 56.8566 20.3285 57.0731 20.545C57.2671 20.7552 57.2608 21.0944 57.2554 21.3855C57.2544 21.4405 57.2534 21.4938 57.2538 21.5442C57.2545 21.5939 57.2551 21.6435 57.2558 21.6932C57.2575 21.8227 57.2588 21.9523 57.2601 22.0819C57.2613 22.2036 57.2629 22.3253 57.2644 22.4471L57.2648 22.4799C57.268 22.7393 57.2708 22.9988 57.2734 23.2583H56.5725L56.5391 22.8579L56.4557 22.9809C56.3271 23.1531 56.175 23.2573 55.9717 23.325C55.7287 23.3495 55.5545 23.301 55.348 23.1665C55.1536 22.9774 55.0998 22.7644 55.0956 22.4992C55.1008 22.1715 55.1867 21.9687 55.4169 21.7311C55.711 21.4808 56.0786 21.4541 56.4476 21.4273L56.4486 21.4272L56.5058 21.423L56.5057 21.4229C56.4978 21.269 56.4938 21.1923 56.4812 21.1171C56.4686 21.0422 56.4476 20.9688 56.4056 20.8224C56.3037 20.8126 56.2069 20.8087 56.1052 20.8224C55.9743 20.9331 55.9429 21.0615 55.905 21.2228C55.6688 21.2268 55.4387 21.2179 55.2041 21.1894C55.2132 20.9084 55.2962 20.6918 55.5021 20.4934C55.7449 20.3026 55.961 20.2361 56.2659 20.2384ZM56.1678 21.9131L56.1029 21.9448C56.0151 22.0068 55.963 22.0662 55.905 22.1571C55.8953 22.2134 55.8903 22.2421 55.8884 22.2709C55.8864 22.3009 55.8877 22.3312 55.8904 22.3928L55.8905 22.5149C55.9058 22.6302 55.9206 22.679 56.0051 22.7578C56.1109 22.7729 56.1717 22.7805 56.2721 22.7578C56.4125 22.6402 56.4712 22.4667 56.5058 22.2906C56.5134 22.1455 56.5118 22.0019 56.5058 21.8568C56.3772 21.8519 56.283 21.8541 56.1678 21.9131Z" fill="white"/>
<path d="M30.4056 20.3218H31.1399L31.1419 20.5152C31.1442 20.7263 31.1467 20.9374 31.1495 21.1485C31.1512 21.2765 31.1527 21.4044 31.154 21.5324C31.1552 21.656 31.1568 21.7795 31.1585 21.903C31.1592 21.9501 31.1597 21.9972 31.1601 22.0443C31.1606 22.1103 31.1616 22.1764 31.1626 22.2425L31.164 22.3563C31.1733 22.458 31.197 22.5322 31.24 22.6243C31.3528 22.6338 31.4614 22.6393 31.5738 22.6243C31.6118 22.5856 31.63 22.567 31.6426 22.5452C31.6542 22.5249 31.6609 22.5019 31.6739 22.4574L31.7073 22.3907C31.7113 22.325 31.7132 22.2591 31.7142 22.1932L31.7162 22.0677L31.7179 21.9316C31.7186 21.8853 31.7193 21.839 31.72 21.7927C31.7218 21.6709 31.7235 21.549 31.7251 21.4271C31.7256 21.3865 31.7262 21.3459 31.7268 21.3053L31.728 21.2211C31.7287 21.1745 31.7294 21.1278 31.73 21.0812L31.7304 21.054C31.734 20.8099 31.7374 20.5659 31.7407 20.3218H32.475V23.2583H31.7741L31.7407 22.9246L31.651 23.0518C31.5494 23.1868 31.4622 23.2646 31.2984 23.3146C31.0673 23.3409 30.8802 23.3463 30.6726 23.2249C30.5136 23.0765 30.4131 22.9312 30.3976 22.7094C30.3974 22.6649 30.3976 22.6204 30.3981 22.5758L30.398 22.5018C30.3981 22.4214 30.3986 22.3411 30.3991 22.2607C30.3992 22.2049 30.3993 22.149 30.3994 22.0931C30.3997 21.9464 30.4003 21.7996 30.4011 21.6529C30.4017 21.503 30.402 21.3532 30.4024 21.2033C30.4031 20.9095 30.4043 20.6156 30.4056 20.3218Z" fill="white"/>
<path fill-rule="evenodd" clip-rule="evenodd" d="M63.0496 20.3073C63.3259 20.4606 63.5109 20.6555 63.6149 20.9559C63.7822 21.5839 63.7941 22.3076 63.4814 22.8913C63.3489 23.1008 63.1545 23.2344 62.9195 23.3119C62.5998 23.3702 62.3138 23.3472 62.0303 23.1834C61.7154 22.9645 61.5941 22.614 61.5251 22.2476C61.5029 22.0923 61.5008 21.9384 61.5018 21.7817L61.5023 21.6801C61.509 21.2505 61.5727 20.8677 61.8564 20.5304C62.1851 20.2552 62.6361 20.1372 63.0496 20.3073ZM62.3466 20.9892C62.2723 21.2429 62.2687 21.4874 62.2694 21.7505L62.2678 21.8712V21.8713C62.2657 22.0882 62.2647 22.1953 62.2853 22.298C62.3054 22.3983 62.346 22.4945 62.4263 22.6845C62.5139 22.7495 62.5919 22.7398 62.6931 22.727L62.7027 22.7258L62.7137 22.7244C62.8428 22.6407 62.8662 22.5426 62.9005 22.397C62.9213 22.2842 62.9235 22.1722 62.9228 22.058L62.923 21.9845C62.9231 21.9336 62.923 21.8828 62.9227 21.832C62.9223 21.7547 62.9227 21.6775 62.9231 21.6002L62.9228 21.4511L62.9233 21.382C62.9215 21.1967 62.8985 21.0273 62.7888 20.8745C62.7529 20.846 62.7345 20.8313 62.7136 20.8223C62.6915 20.8129 62.6667 20.8099 62.6157 20.8036C62.4743 20.8296 62.4315 20.8737 62.3466 20.9892Z" fill="white"/>
<path fill-rule="evenodd" clip-rule="evenodd" d="M38.3825 20.3885C38.668 20.5998 38.8277 20.8426 38.8967 21.1911C38.9224 21.3804 38.9201 21.5692 38.9178 21.7595C38.9172 21.814 38.9165 21.8687 38.9165 21.9235H37.5147C37.5197 22.283 37.5215 22.4107 37.5738 22.5123C37.6026 22.5683 37.6467 22.6164 37.715 22.691C37.8102 22.7386 37.8764 22.7347 37.982 22.7244C38.0962 22.6517 38.1703 22.5858 38.2156 22.4574C38.2284 22.391 38.2399 22.3243 38.249 22.2572C38.474 22.2529 38.693 22.264 38.9165 22.2906C38.9049 22.594 38.7804 22.8815 38.5577 23.0914C38.2802 23.306 37.9952 23.3664 37.6482 23.325C37.3599 23.2563 37.162 23.0915 36.9724 22.8704C36.7085 22.3617 36.6449 21.6293 36.8128 21.0782C36.9493 20.7252 37.1328 20.4928 37.4522 20.2884C37.7464 20.1833 38.1232 20.2152 38.3825 20.3885ZM37.6149 20.9225C37.5427 21.0701 37.5445 21.1712 37.547 21.324C37.5476 21.3546 37.5481 21.3874 37.5481 21.423H38.2156C38.2261 21.2663 38.2313 21.189 38.2137 21.1173C38.1967 21.0476 38.1582 20.9831 38.0822 20.8559L38.0822 20.8558L38.0821 20.8557C37.8998 20.7342 37.7628 20.7664 37.6149 20.9225Z" fill="white"/>
<path fill-rule="evenodd" clip-rule="evenodd" d="M48.266 20.4136C48.5877 20.6653 48.6905 20.962 48.7625 21.3563V21.9236H47.3607C47.3593 22.1482 47.3587 22.2552 47.3866 22.3542C47.412 22.4442 47.461 22.5276 47.5547 22.6869C47.6558 22.7388 47.7157 22.7428 47.828 22.7244C47.9973 22.6024 48.0431 22.4507 48.095 22.2573C48.32 22.253 48.539 22.264 48.7625 22.2906C48.7354 22.6019 48.6261 22.865 48.4083 23.092C48.1692 23.2908 47.9012 23.3513 47.5954 23.3364C47.2754 23.3005 47.0736 23.1676 46.8601 22.9246C46.792 22.8174 46.74 22.7088 46.6932 22.591L46.6577 22.5143C46.4902 22.0313 46.5384 21.3045 46.7474 20.8474C46.8851 20.5928 47.0651 20.383 47.34 20.2758C47.6776 20.1958 47.9691 20.2474 48.266 20.4136ZM47.4275 20.9559C47.3558 21.1059 47.3574 21.2041 47.3597 21.3589C47.3602 21.389 47.3607 21.4213 47.3607 21.4564H48.0616V21.4563C48.0711 21.3041 48.0758 21.2291 48.0627 21.1573C48.0499 21.0875 48.0202 21.0208 47.9616 20.8894L47.9615 20.8892L47.9615 20.8891C47.8706 20.8155 47.8097 20.7915 47.6945 20.7723C47.5569 20.7953 47.5125 20.8472 47.4275 20.9559Z" fill="white"/>
<path d="M53.665 20.3444C53.9443 20.5194 54.0802 20.772 54.1595 21.0842C54.1709 21.1667 54.1703 21.2504 54.1697 21.3338C54.1696 21.3524 54.1694 21.371 54.1694 21.3897L53.4685 21.423L53.4262 21.1493C53.4002 21.0499 53.3732 20.9957 53.3017 20.9225C53.158 20.8986 53.0937 20.9043 52.9742 20.9892C52.8202 21.2004 52.821 21.4517 52.8218 21.7033C52.8218 21.7246 52.8219 21.7459 52.8219 21.7671L52.8194 21.8747C52.8185 22.1197 52.8508 22.3391 52.9679 22.5576C53.0837 22.6348 53.1322 22.6385 53.2683 22.6243C53.3673 22.5572 53.3996 22.4692 53.4352 22.3574C53.4469 22.2796 53.4581 22.2017 53.4685 22.1238C53.5666 22.1229 53.6646 22.1222 53.7627 22.1217L53.847 22.1208L53.9281 22.1205L54.0028 22.12C54.0287 22.1215 54.0445 22.1224 54.06 22.1249C54.0844 22.1288 54.1082 22.1368 54.1694 22.1571C54.161 22.4955 54.0667 22.837 53.8357 23.0915C53.5567 23.314 53.2503 23.3587 52.9011 23.3251C52.6322 23.2569 52.4313 23.1302 52.2774 22.8975C52.0777 22.5559 52.0599 22.2208 52.0587 21.8303C52.0584 21.7635 52.0574 21.6967 52.0563 21.63C52.0547 21.2292 52.1212 20.8507 52.4031 20.5476C52.7494 20.2249 53.2279 20.135 53.665 20.3444Z" fill="white"/>
<path d="M66.0722 20.2947C66.3551 20.4466 66.4658 20.6249 66.5854 20.9225V21.0226L66.0514 21.1894L65.9929 21.0622C65.9553 20.9875 65.9367 20.9505 65.9102 20.9203C65.8844 20.8909 65.851 20.868 65.785 20.8228L65.785 20.8228L65.7848 20.8227L65.7847 20.8226L65.7845 20.8225L65.7844 20.8224L65.7844 20.8224L65.7842 20.8224C65.7231 20.8153 65.6932 20.8118 65.6634 20.8119C65.6349 20.8121 65.6064 20.8156 65.5507 20.8224C65.474 20.8991 65.4739 20.9243 65.4736 21.0219L65.4735 21.0372L65.4718 21.1163C65.4871 21.2085 65.5114 21.2288 65.5817 21.2875L65.5841 21.2895C65.6448 21.3206 65.7067 21.3493 65.7693 21.3764L65.8797 21.426C65.956 21.4599 66.0325 21.4933 66.1092 21.5261C66.4057 21.6612 66.5461 21.8053 66.6646 22.1071C66.7197 22.4151 66.6805 22.6833 66.513 22.9544C66.3539 23.1583 66.1345 23.2757 65.8845 23.3251C65.5189 23.3583 65.2476 23.3183 64.9395 23.1207C64.7513 22.9194 64.6647 22.6968 64.6496 22.4241C64.8521 22.3831 65.0434 22.3482 65.2503 22.3574C65.2727 22.4004 65.295 22.4435 65.3171 22.4867L65.3546 22.5594C65.3697 22.5929 65.377 22.6091 65.3805 22.6261C65.3838 22.642 65.3838 22.6587 65.3838 22.6911C65.4815 22.7236 65.5489 22.7299 65.6508 22.7307L65.7384 22.7321C65.777 22.7311 65.7987 22.7306 65.8186 22.7242C65.8441 22.716 65.8665 22.6983 65.9178 22.6577C65.9255 22.6241 65.9295 22.6066 65.9311 22.5889C65.933 22.5697 65.9321 22.5502 65.9304 22.5096L65.9311 22.4305C65.9146 22.3397 65.8884 22.3174 65.8195 22.2588L65.8177 22.2573L65.8176 22.2572C65.7842 22.2394 65.767 22.2302 65.7493 22.222C65.7305 22.2133 65.7113 22.2057 65.6716 22.1901L65.6713 22.19L65.5847 22.1531C65.5252 22.1283 65.4657 22.1037 65.4061 22.0793C65.1724 21.9792 64.967 21.8568 64.8291 21.6372L64.8018 21.5628L64.7728 21.487L64.7497 21.423L64.7163 21.3563C64.6844 21.0551 64.741 20.7893 64.9249 20.545C65.2277 20.2492 65.6654 20.1544 66.0722 20.2947Z" fill="white"/>
<path d="M28.4365 20.2384L28.5129 20.2368C28.7368 20.2384 28.9063 20.3064 29.0775 20.4506C29.2236 20.6226 29.3376 20.7881 29.3376 21.0226C29.2675 21.0506 29.1972 21.0783 29.1269 21.106L29.0084 21.1529C28.9535 21.1721 28.9274 21.1812 28.9005 21.1855C28.8762 21.1894 28.8512 21.1894 28.8036 21.1894L28.7352 21.0167C28.6986 20.9465 28.6657 20.9047 28.6033 20.8557C28.5672 20.8451 28.5489 20.8397 28.5302 20.8363C28.5109 20.8328 28.4912 20.8314 28.4511 20.8286H28.4511L28.3717 20.8196C28.3369 20.8175 28.318 20.8163 28.3021 20.8227C28.2831 20.8303 28.2684 20.8487 28.2362 20.8891C28.223 20.985 28.2166 21.0321 28.2249 21.0764C28.233 21.1191 28.2548 21.1592 28.2977 21.238C28.425 21.3558 28.5933 21.4202 28.7563 21.4825C28.7937 21.4968 28.8307 21.5109 28.8669 21.5256C29.1235 21.6352 29.2578 21.7572 29.4002 21.9944C29.4874 22.2267 29.468 22.5047 29.3856 22.7348C29.2652 22.9936 29.107 23.1632 28.8408 23.2686C28.534 23.3689 28.169 23.3754 27.874 23.2358C27.667 23.1082 27.5082 22.9252 27.4352 22.691C27.4256 22.5987 27.4285 22.5173 27.4352 22.4241C27.6394 22.3772 27.8263 22.3496 28.036 22.3573L28.0543 22.4122L28.0798 22.4846L28.1044 22.5561C28.1403 22.6333 28.1672 22.6742 28.2362 22.7244C28.2787 22.7327 28.3007 22.7369 28.3228 22.7389C28.3465 22.7409 28.3704 22.7403 28.4198 22.739L28.5168 22.7409C28.5623 22.7365 28.5849 22.7343 28.6033 22.7244C28.6215 22.7146 28.6357 22.6973 28.6638 22.6629C28.719 22.5626 28.7219 22.5035 28.7035 22.3907C28.5794 22.2406 28.4538 22.1781 28.2779 22.1091C27.9498 21.9725 27.693 21.8488 27.5326 21.5146C27.4549 21.2823 27.4628 20.9424 27.5687 20.7222C27.8064 20.4025 28.0333 20.2301 28.4365 20.2384Z" fill="white"/>
<path d="M41.3864 20.2551C41.3995 20.2682 41.4074 20.2761 41.4125 20.2856C41.4204 20.3004 41.4213 20.3188 41.4236 20.3658L41.423 20.4669L41.4227 20.5761L41.4219 20.691L41.4214 20.8063C41.4213 20.8266 41.4212 20.847 41.4211 20.8673L41.4208 20.9341C41.4205 20.9858 41.4202 21.0376 41.4198 21.0893L41.3501 21.0949L41.2589 21.1029L41.1684 21.1105C41.048 21.1283 40.9978 21.1636 40.9191 21.2562C40.7832 21.4854 40.7656 21.6961 40.7653 21.9581L40.7636 22.0713C40.762 22.1896 40.7613 22.3079 40.7606 22.4262C40.7597 22.5068 40.7587 22.5874 40.7576 22.6681C40.7551 22.856 40.7538 23.0439 40.7524 23.2319L40.7523 23.2583H39.9846V20.2885H40.6521L40.6855 20.8224L40.7543 20.6681C40.895 20.3849 41.0684 20.2436 41.3864 20.2551Z" fill="white"/>
<path d="M51.2324 20.2551C51.2454 20.2682 51.2534 20.2761 51.2585 20.2856C51.2663 20.3003 51.2672 20.3188 51.2695 20.3658L51.269 20.4669L51.2687 20.5761L51.2678 20.691L51.2674 20.8063C51.267 20.9006 51.2664 20.995 51.2657 21.0893L51.1967 21.0944L51.1059 21.1021L51.016 21.1093C50.9158 21.1253 50.8458 21.1592 50.7729 21.2309C50.6035 21.472 50.5782 21.7575 50.5779 22.0428L50.5762 22.149C50.5746 22.2594 50.5739 22.3699 50.5732 22.4804C50.5722 22.5559 50.5712 22.6314 50.5702 22.7069C50.5677 22.8824 50.5664 23.0579 50.565 23.2334L50.5648 23.2583H49.8306V20.2885H50.4981L50.5315 20.789L50.5815 20.6701C50.7184 20.3934 50.9278 20.244 51.2324 20.2551Z" fill="white"/>
<path d="M53.7861 0H50.7512V16.2987H53.7861L53.7862 16.1201C53.7862 15.809 53.7863 15.4979 53.7877 15.1867L53.7882 15.0804C53.7893 14.8715 53.7903 14.6626 53.7903 14.4537C53.79 14.2503 53.7901 14.047 53.7913 13.8436C53.7918 13.7661 53.7923 13.6886 53.7926 13.6111C53.7922 13.4998 53.7917 13.3885 53.7926 13.2772L53.7937 13.1744C53.7906 12.9367 53.8135 12.7968 53.9705 12.6126C53.9905 12.5904 54.0023 12.5772 54.0136 12.5636C54.0301 12.5437 54.0454 12.5228 54.083 12.4716L54.1366 12.3978C54.1768 12.3427 54.217 12.2875 54.2572 12.2324L54.3186 12.1477L54.3784 12.0659C54.4519 11.9648 54.5299 11.8767 54.6199 11.7898C54.7137 11.9548 54.8085 12.1192 54.9039 12.2833L54.9617 12.3827C55.1128 12.6422 55.2649 12.9012 55.4182 13.1595C55.5951 13.4576 55.7712 13.7561 55.9438 14.0568C56.0873 14.3071 56.2307 14.5574 56.379 14.8049C56.4729 14.9612 56.5199 15.0393 56.5668 15.1175C56.6137 15.1957 56.6606 15.2739 56.7543 15.4303L57.2546 16.2987H60.7897C60.7897 16.2712 60.7897 16.2551 60.7862 16.2397C60.7812 16.2177 60.769 16.1973 60.7393 16.1477C60.6034 15.9419 60.4702 15.7346 60.3405 15.5248L60.2874 15.4387C60.1627 15.2363 60.1004 15.1351 60.0381 15.0338C59.9758 14.9326 59.9136 14.8313 59.7892 14.6287C59.6284 14.3669 59.4673 14.1052 59.3056 13.8439C59.1669 13.6197 59.0286 13.3954 58.8907 13.1708C58.7226 12.897 58.5545 12.6233 58.3856 12.3501L58.3322 12.2637C58.2443 12.1216 58.1565 11.9795 58.0685 11.8376C57.9789 11.6931 57.8895 11.5487 57.8003 11.404L57.6881 11.222C57.623 11.1168 57.558 11.0115 57.4932 10.906L57.4297 10.8025L57.3681 10.7031L57.3114 10.6103C57.2647 10.5345 57.2254 10.4657 57.1957 10.3819C57.1887 10.3514 57.1848 10.3346 57.188 10.3193C57.1919 10.3006 57.2063 10.284 57.2384 10.2472C57.2839 10.1956 57.3289 10.1434 57.3707 10.0887L57.425 10.0155L57.4838 9.93671C57.688 9.66266 57.8936 9.38972 58.1008 9.11791L58.1537 9.04867L58.1566 9.04464L58.1567 9.04451C58.2513 8.92064 58.3458 8.79677 58.439 8.67185C58.5632 8.50493 58.6889 8.33946 58.8168 8.17542C59.003 7.93678 59.1871 7.69684 59.3681 7.45423C59.5219 7.248 59.6764 7.04236 59.8323 6.83768L59.9696 6.65745C60.0318 6.57583 60.0939 6.49421 60.156 6.4126C60.2029 6.35109 60.2498 6.28958 60.2966 6.22793L60.3353 6.17672C60.4091 6.07954 60.4699 5.98786 60.5229 5.87821C60.1125 5.87751 59.702 5.87694 59.2916 5.87658L59.2428 5.87654C59.05 5.87639 58.8573 5.87624 58.6646 5.87592C58.4596 5.87555 58.2546 5.87522 58.0496 5.8751C57.9903 5.87507 57.9311 5.87504 57.8718 5.875L57.8164 5.87495C57.704 5.87469 57.5916 5.87443 57.4792 5.87441L57.3766 5.87442L57.2787 5.87406L57.1901 5.8742C57.1449 5.87414 57.0996 5.87503 57.0545 5.87821C57.0488 5.8839 57.044 5.88873 57.0393 5.89367C57.0128 5.92146 56.9901 5.95287 56.8398 6.16067C56.7951 6.22251 56.7504 6.28433 56.7057 6.34611C56.5091 6.61763 56.3133 6.88972 56.1207 7.16407C56.001 7.33442 55.8805 7.50405 55.7586 7.67276C55.6 7.89193 55.4424 8.11163 55.2869 8.33304C55.1673 8.50339 55.0468 8.67301 54.9249 8.84172L54.907 8.86637C54.788 9.0308 54.6691 9.1952 54.5521 9.3611C54.3104 9.70508 54.0654 10.046 53.8195 10.3871L53.7861 0Z" fill="white"/>
<path d="M36.2292 2.35585L36.1104 2.33794C34.088 2.02556 31.556 2.22978 30.0628 3.8135L30.0073 3.87429C29.5409 4.3622 29.2118 4.90321 29.0331 5.55637L29.0068 5.67784C28.9437 5.96505 28.9307 6.24409 28.931 6.53682C28.9314 6.61896 28.9318 6.70108 28.9314 6.78323C28.9313 6.79933 28.9312 6.81542 28.9311 6.83149C28.9296 7.08317 28.9281 7.33173 28.9876 7.57828L29.0068 7.64838C29.1834 8.35342 29.4972 9.07117 30.0786 9.53698L30.1407 9.58551C31.1529 10.4299 32.4307 10.7786 33.6988 11.0405C34.0038 11.1033 34.3073 11.168 34.6087 11.2466L34.7201 11.2763C35.1541 11.3901 35.6612 11.5396 35.9729 11.8838L36.0437 11.9902C36.1167 12.0981 36.1713 12.1996 36.2105 12.3242C36.2388 12.6315 36.2418 12.9566 36.0771 13.226C35.7667 13.6078 35.2689 13.8155 34.7935 13.8894L34.6826 13.9044C34.296 13.9588 33.9163 13.9823 33.5262 13.9652L33.4424 13.9608C32.0954 13.8896 30.8543 13.2962 29.71 12.6248C29.623 12.5734 29.5359 12.522 29.4485 12.471C29.1551 12.3002 28.8626 12.1281 28.5759 11.9463L28.5045 11.9005C28.3932 11.8292 28.283 11.758 28.18 11.6748L28.1225 11.626C28.0857 11.5952 28.049 11.5642 28.0126 11.5331C27.9584 11.4839 27.9227 11.4515 27.8813 11.4301C27.8016 11.3891 27.7009 11.3891 27.406 11.3891V14.9293C28.6472 15.5509 30.1283 16.1069 31.4937 16.3511C31.5468 16.3605 31.5999 16.3703 31.6529 16.3804C31.8014 16.4089 31.95 16.4342 32.0997 16.4554L32.1751 16.4657C33.5712 16.6609 35.1839 16.6172 36.5071 16.1072L36.6107 16.0649C37.4692 15.7277 38.2174 15.2096 38.791 14.4805C39.4651 13.5867 39.7011 12.4036 39.5588 11.3041L39.5455 11.2221C39.4238 10.4387 39.1006 9.70178 38.4869 9.1799L38.4116 9.11793C37.4828 8.3307 36.2301 7.95971 35.06 7.7069C34.8951 7.67143 34.7303 7.63522 34.5655 7.59884C34.4606 7.57567 34.3557 7.55244 34.2507 7.52985C34.0028 7.47673 33.7564 7.42086 33.5125 7.35151L33.4385 7.33004C33.1302 7.2417 32.8302 7.11576 32.5732 6.91986C32.401 6.75135 32.3092 6.57087 32.2972 6.32886C32.2909 5.99157 32.2972 5.70254 32.5379 5.44339C33.0692 4.94558 33.8209 4.79413 34.5296 4.7974C34.6002 4.79824 34.6708 4.79903 34.7414 4.79892C34.9974 4.79813 35.2451 4.8054 35.4968 4.85831C35.5477 4.86973 35.5988 4.88053 35.65 4.89049C36.6559 5.08336 37.7651 5.49551 38.5263 6.20178L38.6095 6.2857C38.6358 6.30115 38.6553 6.31262 38.6761 6.32115C38.736 6.34582 38.8061 6.34582 39.0786 6.34582V3.17292C38.1869 2.72638 37.2092 2.50633 36.2292 2.35585Z" fill="white"/>
<path d="M73.4628 5.87821H70.2612C70.2612 5.88746 70.2612 5.89415 70.2618 5.90078C70.2634 5.91809 70.2693 5.93501 70.2904 5.9961C70.3123 6.0565 70.3343 6.11691 70.3562 6.17734L70.3814 6.24692C70.4291 6.37834 70.4768 6.5098 70.5243 6.64129L70.5559 6.72871C70.6987 7.12402 70.8399 7.51988 70.981 7.9158L71.0241 8.03662C71.0963 8.2392 71.1685 8.44179 71.2406 8.64438C71.3446 8.93621 71.4486 9.22802 71.5527 9.51981L72.7179 12.787C72.7798 12.9606 72.8417 13.1342 72.9035 13.3078C73.0394 13.6897 73.1754 14.0715 73.3134 14.4527C73.3685 14.6049 73.4235 14.7572 73.4784 14.9094L73.5088 14.9938C73.5289 15.0496 73.549 15.1053 73.5691 15.161C73.6123 15.2794 73.6554 15.3978 73.6981 15.5163L73.7373 15.6254C73.8648 15.9719 73.9456 16.216 73.8072 16.57C73.7791 16.6381 73.7516 16.7065 73.7247 16.775L73.682 16.8838C73.6152 17.0513 73.5513 17.2196 73.4897 17.3891C73.4811 17.4131 73.4724 17.437 73.4637 17.4609L73.4198 17.5818C73.3954 17.6487 73.371 17.7156 73.3467 17.7824C73.3206 17.8542 73.2945 17.9259 73.2683 17.9976L73.197 18.1933C73.1638 18.2846 73.1305 18.3759 73.0972 18.4672C72.983 18.781 72.8686 19.0946 72.7543 19.4083C72.6747 19.6266 72.5951 19.8449 72.5156 20.0632L72.3947 20.3951C72.2836 20.7 72.1723 21.0047 72.0604 21.3092C71.9975 21.4805 71.9347 21.6518 71.8719 21.8232C71.8205 21.9634 71.7691 22.1036 71.7174 22.2437C71.6851 22.3314 71.6529 22.419 71.6207 22.5068L71.5758 22.6296L71.5334 22.7441L71.4942 22.8514C71.4755 22.9023 71.4629 22.9366 71.4518 22.9714C71.4288 23.0435 71.4124 23.1177 71.3618 23.3457L71.3617 23.3459H74.6301L74.6416 23.3154L74.6419 23.3147C74.8397 22.7924 75.0371 22.2711 75.2273 21.7461C75.2965 21.5544 75.3659 21.3627 75.4354 21.171L75.4804 21.0468C75.6507 20.5765 75.8218 20.1065 75.9932 19.6367L76.4068 18.5024C76.471 18.3265 76.5351 18.1507 76.5992 17.9748L77.7722 14.7572C77.887 14.4422 78.0019 14.1271 78.1166 13.812L78.3674 13.1237C78.5665 12.5771 78.7661 12.0307 78.9677 11.4851C79.1655 10.9498 79.3584 10.4127 79.5513 9.87565C79.7326 9.37103 79.914 8.86653 80.0992 8.36334L80.1227 8.29951C80.1977 8.09589 80.2727 7.89232 80.3481 7.68884C80.5709 7.08712 80.7856 6.48316 81 5.87821H77.865C77.7487 6.22774 77.6325 6.57714 77.5192 6.92765L77.3832 7.34852C77.3518 7.44569 77.3205 7.54287 77.289 7.64002C77.2782 7.67342 77.2674 7.70681 77.2565 7.7402L77.2171 7.86139C77.0951 8.23643 76.9731 8.61157 76.8636 8.99045C76.8323 9.1011 76.8006 9.2102 76.7624 9.31868C76.7072 9.46539 76.6558 9.61126 76.6128 9.76211C76.5315 10.0483 76.4402 10.3305 76.3455 10.6125C76.2568 10.8763 76.1686 11.1402 76.0835 11.4052L76.0559 11.4912C76.0197 11.6039 75.9835 11.7167 75.9474 11.8295C75.9217 11.9102 75.8961 11.991 75.8702 12.0716L75.8463 12.1461C75.8068 12.2714 75.7709 12.3806 75.6973 12.4912L75.0531 10.5796C74.9275 10.2072 74.802 9.83483 74.6766 9.4624C74.5998 9.23442 74.523 9.00644 74.4462 8.77847C74.3922 8.61821 74.3382 8.45796 74.2842 8.29769C74.0124 7.4905 73.7377 6.68437 73.4628 5.87821Z" fill="white"/>
<path fill-rule="evenodd" clip-rule="evenodd" d="M69.269 6.55873C69.3225 6.60956 69.3753 6.66105 69.4274 6.7132L69.5053 6.79004C69.7877 7.08492 69.9719 7.4221 70.1049 7.80492L70.1281 7.87016C70.3003 8.40376 70.3089 8.96085 70.3059 9.51547L70.3059 9.73885C70.306 9.93892 70.3054 10.139 70.3047 10.3391C70.3041 10.5266 70.304 10.7142 70.3039 10.9017L70.3039 10.9686C70.3036 11.3202 70.303 11.6718 70.3021 12.0233C70.3012 12.3851 70.3005 12.7469 70.3 13.1086L70.2996 13.5133C70.2985 14.4418 70.2967 15.3702 70.2945 16.2987H67.293V15.1965L67.0929 15.3552C67.027 15.4069 66.961 15.4585 66.895 15.5101C66.8705 15.5292 66.8459 15.5485 66.8214 15.5677C66.8114 15.5756 66.8014 15.5835 66.7914 15.5913L66.7597 15.6163C65.8574 16.3267 64.8119 16.6646 63.6578 16.5659C62.7542 16.4425 62.0118 16.021 61.4362 15.3089C61.0257 14.7534 60.8434 14.0621 60.8477 13.3809C60.8481 13.314 60.8477 13.247 60.8473 13.1801C60.8488 12.3849 61.0443 11.6508 61.5901 11.0551L61.6744 10.9613C62.7747 9.79462 64.5775 9.64534 66.1272 9.51702L66.1275 9.517L66.1276 9.51698C66.2871 9.50378 66.4438 9.4908 66.5968 9.47696L66.6839 9.46886C66.8872 9.45142 67.089 9.44929 67.293 9.45191C67.2492 8.98104 67.1822 8.62177 66.8027 8.30186C66.0796 7.79656 64.865 7.82364 64.026 7.9432C63.3785 8.05959 62.6811 8.29918 62.09 8.58752C62.0659 8.59462 62.0477 8.60001 62.0291 8.6041C61.9709 8.61694 61.9098 8.61694 61.6568 8.61694V6.11202C61.8826 6.03662 61.9577 6.01156 62.0343 5.99247C62.0724 5.98296 62.1109 5.97492 62.1685 5.96289L62.2848 5.93854L62.4072 5.91371L62.5363 5.88738C62.9417 5.80553 63.3482 5.73464 63.7579 5.67783L63.8665 5.66255C65.5476 5.43365 67.9132 5.37918 69.269 6.55873ZM66.8817 11.4159L66.7603 11.4331L66.6323 11.4517C66.2803 11.502 66.171 11.5176 66.0614 11.5299C66.012 11.5354 65.9626 11.5403 65.8909 11.5474C65.2695 11.6096 64.5912 11.7361 64.1581 12.224C63.8881 12.6144 63.8816 13.042 63.9378 13.5004C64.0035 13.7691 64.1963 13.9709 64.4207 14.1236C64.9159 14.395 65.6071 14.3755 66.1412 14.2364C66.4478 14.1429 66.7285 14.0089 66.9929 13.8272L67.068 13.7865C67.2013 13.7041 67.2806 13.6432 67.3194 13.4872C67.3278 13.3532 67.3268 13.2224 67.3223 13.0884C67.3218 13.0393 67.3213 12.9902 67.321 12.9411C67.3199 12.8125 67.3169 12.684 67.3136 12.5555C67.3108 12.4346 67.3094 12.3137 67.308 12.1928L67.3077 12.1612C67.3045 11.9038 67.2993 11.6464 67.293 11.389C67.1527 11.388 67.0207 11.3959 66.8817 11.4159Z" fill="white"/>
<path fill-rule="evenodd" clip-rule="evenodd" d="M46.2823 5.67783C46.3413 5.68557 46.4004 5.69327 46.4595 5.70092C46.8024 5.74759 47.1243 5.82708 47.4496 5.94502L47.5147 5.96839C48.3101 6.25815 48.9098 6.74225 49.2868 7.50616C49.3785 7.70295 49.4357 7.90426 49.4839 8.11595L49.5053 8.20115C49.5724 8.47917 49.589 8.75593 49.588 9.04111L49.5881 9.1357C49.5881 9.23954 49.5879 9.34338 49.5878 9.44722C49.5878 9.52196 49.5878 9.5967 49.5878 9.67144C49.5878 9.87381 49.5876 10.0762 49.5874 10.2786C49.5872 10.4695 49.5871 10.6604 49.5871 10.8513L49.5871 10.9136C49.587 11.2687 49.5868 11.6239 49.5865 11.979C49.5862 12.3447 49.586 12.7103 49.5858 13.076L49.5857 13.4841C49.5853 14.4223 49.5847 15.3605 49.584 16.2987H46.5824L46.5491 15.2299L46.3156 15.4241C45.3534 16.2113 44.2657 16.6851 42.9999 16.5578C42.3192 16.4731 41.7334 16.2498 41.213 15.7977L41.1109 15.7205C40.529 15.1873 40.1882 14.3929 40.1384 13.6105C40.1062 12.5822 40.2751 11.7352 40.9763 10.9507C41.9504 9.92933 43.4858 9.7301 44.8149 9.58551L44.8989 9.57631C45.1064 9.55366 45.3139 9.53183 45.5215 9.51036L45.607 9.50135C45.9336 9.46721 46.2537 9.44263 46.5824 9.45191C46.5729 9.09147 46.5266 8.76965 46.3094 8.47082C45.7414 7.93992 44.8893 7.90718 44.1562 7.90304L44.0813 7.90223C43.7343 7.89937 43.4186 7.93523 43.0807 8.01576L42.9983 8.03371C42.4545 8.15375 41.8697 8.34126 41.3686 8.5886L41.3684 8.58867C41.347 8.59547 41.3308 8.60065 41.3143 8.60457C41.2622 8.61694 41.2073 8.61694 40.9796 8.61694V6.07862C42.7519 5.67784 44.4749 5.41612 46.2823 5.67783ZM46.1723 11.4197L46.0894 11.4296C45.7291 11.4723 45.5489 11.4937 45.3695 11.5202C45.1902 11.5467 45.0116 11.5783 44.6544 11.6416L44.5638 11.6604C44.1327 11.7563 43.67 11.9069 43.4142 12.2908C43.2639 12.5531 43.2396 12.7628 43.237 13.0632L43.2341 13.1749C43.2318 13.466 43.2901 13.6613 43.4538 13.9002C43.7644 14.2113 44.0962 14.3062 44.529 14.3104L44.6544 14.3094L44.7847 14.3085C45.3045 14.299 45.7384 14.1625 46.1822 13.894L46.2819 13.8381C46.3912 13.7695 46.4453 13.7355 46.4874 13.6903C46.5288 13.646 46.5586 13.5907 46.6177 13.4813C46.6287 13.3464 46.6276 13.2168 46.6215 13.0818L46.6212 13.0605C46.6211 13.051 46.621 13.0415 46.6208 13.032L46.6206 13.0172C46.6203 12.9897 46.62 12.9623 46.6198 12.9349C46.6183 12.8068 46.6144 12.6789 46.6099 12.5509C46.6062 12.431 46.6043 12.311 46.6025 12.191L46.6025 12.1903L46.602 12.1579C46.5977 11.9016 46.5909 11.6453 46.5824 11.3891C46.4437 11.3891 46.3098 11.4032 46.1723 11.4197Z" fill="white"/>
</svg>
