<svg width="64" height="64" viewBox="0 0 64 64" fill="none" xmlns="http://www.w3.org/2000/svg">
<path d="M40.7413 16.1322C42.1882 16.3375 43.6345 16.5344 45.0801 16.7229C45.16 16.7141 45.2089 16.6648 45.2272 16.5752C41.7541 13.4083 38.3469 10.1595 35.0053 6.82861C30.7755 11.0515 26.4858 15.1864 22.136 19.2334C22.0198 19.4245 21.8727 19.5969 21.6947 19.7503C24.8655 19.4225 28.052 19.2009 31.2548 19.0857C32.2733 18.901 33.3029 18.8027 34.3434 18.7904H34.4905C34.8178 18.1334 35.357 17.8873 36.1084 18.052C36.4893 17.9706 36.5873 17.7737 36.4025 17.4613C36.7828 17.3166 37.1751 17.2674 37.5791 17.3136C37.8702 17.0674 38.2133 16.9689 38.6087 17.0183C38.6087 16.9198 38.6577 16.8706 38.7558 16.8706C39.2895 16.3546 39.9513 16.1085 40.7413 16.1322Z" fill="#0188E2"/>
<path d="M52.9488 39.7604C54.2697 38.4095 55.6179 37.0804 56.9934 35.7732C58.3259 34.5337 59.6007 33.2538 60.8174 31.9336C58.9157 30.1473 57.1017 28.3013 55.3755 26.3957C54.2581 25.5696 53.2285 24.6344 52.2869 23.5899C51.0701 23.454 49.8691 23.5279 48.6835 23.8114C47.5259 23.7021 46.3738 23.6529 45.2272 23.6637C44.8554 23.8111 44.8554 23.9341 45.2272 24.0329C43.8042 24.1129 42.3824 24.2114 40.9619 24.3283C40.298 24.5025 39.8078 24.8962 39.4911 25.5097C39.6565 25.5464 39.8035 25.6203 39.9324 25.7312C39.3889 26.1538 38.825 26.5475 38.241 26.9126C38.0174 27.6296 37.5762 28.1711 36.9173 28.537C36.6808 29.0202 36.3866 29.4632 36.0348 29.8661C34.9638 32.2629 34.3755 34.7734 34.2699 37.3976C34.4724 37.7305 34.693 38.0503 34.9317 38.3575C36.7561 38.5564 37.7365 39.5656 37.8733 41.3849C35.4525 41.7657 33.0503 41.6672 30.6665 41.0895C29.4977 40.8086 28.37 40.4148 27.2837 39.9081C26.4423 39.6652 25.6088 39.3945 24.7834 39.0959C24.5376 38.8237 24.3905 38.5038 24.3421 38.136C24.2189 38.0855 24.1698 37.9871 24.1951 37.8406C24.3236 37.339 24.4952 36.8468 24.7098 36.3639C25.054 35.9931 25.3236 35.5992 25.5188 35.1825V34.8871C25.9282 34.0993 26.2468 33.2624 26.4748 32.3766C27.0729 31.7707 27.4161 31.0323 27.5043 30.1615C27.8254 29.806 28.1441 29.4615 28.4603 29.1277C28.6695 28.3991 29.0863 27.8084 29.7105 27.3556C29.901 26.9433 30.1216 26.5496 30.3723 26.1742C30.4293 25.6126 30.7234 25.2679 31.2548 25.1405C31.3894 24.8076 31.5854 24.5123 31.8431 24.2544H31.5489C29.6025 24.2664 27.6661 24.4141 25.7394 24.6974C24.0038 24.6433 22.2635 24.4956 20.5181 24.2544C20.3871 24.1643 20.24 24.1152 20.0769 24.1067C19.1412 24.0853 18.2097 24.0608 17.2824 24.0329C16.9584 24.3832 16.6151 24.7032 16.2529 24.9928C13.9534 27.2768 11.6247 29.5412 9.26666 31.7859C9.1686 31.8844 9.1686 31.9828 9.26666 32.0813C17.8775 40.433 26.457 48.752 35.0053 57.0386C38.7397 53.5357 42.4411 49.9669 46.1096 46.332L42.4327 46.1843C41.617 46.1298 40.8325 46.0067 40.0795 45.8152C39.7814 45.8391 39.4872 45.8144 39.197 45.7413C39.0123 45.6797 38.9142 45.5567 38.9028 45.3721V45.2244H38.4616V44.6337H38.9028V43.8954C39.9434 43.8831 40.9729 43.7847 41.9915 43.6C42.255 43.6198 42.5001 43.5706 42.7269 43.4523H43.021C43.3287 43.1548 43.5984 42.8102 43.8299 42.4186C43.9283 41.8059 43.8548 41.2152 43.6093 40.6465H43.1681C43.0638 40.513 42.9167 40.4638 42.7269 40.4988C41.7903 40.5476 40.8587 40.4982 39.9324 40.3511C40.1192 40.2348 40.2663 40.0871 40.3736 39.9081L40.4471 39.7604C40.4717 39.7112 40.4962 39.662 40.5207 39.6127C40.267 39.5621 40.1934 39.4144 40.3001 39.1697C41.1449 38.4934 41.9048 37.755 42.5798 36.9546C43.0344 36.288 43.5247 35.6481 44.0506 35.0348H43.7564C42.0399 35.0594 40.3239 35.0348 38.6087 34.9609C38.7193 34.8619 38.7684 34.7388 38.7558 34.5918C38.7557 34.4932 38.8047 34.4441 38.9028 34.4441V34.1487H38.3145C38.2357 33.6813 38.3582 33.2876 38.6822 32.9673C38.7335 32.2551 39.0033 31.6644 39.4911 31.1952C39.4701 30.935 39.5192 30.6888 39.6382 30.4568C39.9681 30.313 40.3112 30.2637 40.6678 30.3091L40.6678 30.1615H40.8148V29.5708C43.7801 29.3975 46.7217 29.3975 49.6395 29.5708C51.2583 29.4166 52.8761 29.4166 54.4931 29.5708C52.6502 31.7407 50.8363 33.9312 49.0512 36.1424C50.0521 36.2772 51.0325 36.4987 51.9928 36.8069C52.5308 37.7138 52.8495 38.6983 52.9488 39.7604Z" fill="#0188E2"/>
<path d="M38.6392 17.0988C39.0155 17.0544 39.3588 17.1035 39.6687 17.2461C40.6457 17.3764 41.6262 17.4746 42.61 17.5407C42.8299 17.6126 43.0261 17.7108 43.1983 17.8352C43.4335 17.7958 43.6295 17.8449 43.7866 17.9825C44.2478 17.9977 44.6399 18.145 44.9631 18.4243C45.5811 18.471 46.1694 18.4219 46.728 18.277C48.6465 18.2112 50.5584 18.0639 52.4637 17.8352C52.5932 17.6186 52.7893 17.4959 53.0519 17.467C54.3039 17.3251 55.5294 17.4479 56.7287 17.8352C57.1966 17.9906 57.5399 18.2852 57.7581 18.7189C59.1918 18.9784 59.9761 19.8621 60.1112 21.3699C59.9482 21.3783 59.8011 21.4274 59.67 21.5172H59.2288C58.8888 21.638 58.5455 21.7606 58.1993 21.8854L58.1475 21.8904C56.8888 22.0115 55.6313 22.1326 54.3756 22.2536H53.9343C51.7016 22.2668 49.4955 22.3651 47.3162 22.5481V22.6954C44.739 22.6645 42.1899 22.7627 39.6687 22.99C39.8409 23.1144 40.0371 23.2125 40.2569 23.2845C40.2569 23.3828 40.208 23.4318 40.1099 23.4318C39.3965 23.4127 38.7101 23.5355 38.0509 23.8C37.1901 24.7547 36.3813 25.663 35.6243 26.5247C35.528 26.8381 35.4053 27.1326 35.2566 27.4083C35.1585 27.4083 35.1095 27.4574 35.1095 27.5556C34.4648 27.8346 34.048 28.3255 33.8594 29.0284C33.7608 29.1392 33.6383 29.1884 33.4918 29.1757C33.3029 29.6031 33.1559 30.0449 33.0506 30.5012C32.7519 31.3463 32.4086 32.1808 32.0211 33.0049C32.1089 33.0395 32.1578 33.1132 32.1681 33.2259C31.9361 33.663 31.838 34.1294 31.874 34.625C31.7759 34.625 31.7269 34.6741 31.7269 34.7723C31.6162 35.5842 31.5183 36.4189 31.4328 37.276C31.6228 37.7578 31.8678 38.1996 32.1681 38.6015C32.1359 38.7746 32.1849 38.9219 32.3152 39.0434C32.686 39.2326 33.0781 39.3309 33.4918 39.3379C34.0043 39.5365 34.4701 39.831 34.8889 40.2216C34.9741 40.4319 34.9495 40.6284 34.8154 40.8107C32.262 40.8213 29.7618 40.4776 27.3149 39.7798V39.927C26.4735 39.6848 25.6401 39.4148 24.8147 39.117C24.569 38.8456 24.4219 38.5266 24.3735 38.1597C24.2502 38.1093 24.2011 38.0112 24.2264 37.8651C24.355 37.3648 24.5266 36.874 24.7412 36.3924C25.0853 36.0225 25.3549 35.6297 25.55 35.2141V34.9196C25.9595 34.1338 26.278 33.2992 26.506 32.4158C27.1041 31.8115 27.4472 31.0751 27.5355 30.2066C27.8565 29.8521 28.1752 29.5085 28.4914 29.1757C28.7006 28.449 29.1174 27.8599 29.7415 27.4083C29.932 26.9971 30.1526 26.6045 30.4033 26.2301C30.4602 25.67 30.7544 25.3263 31.2857 25.1992C31.5744 24.9841 31.844 24.7386 32.0946 24.4628C32.4158 24.0454 32.3423 23.8489 31.874 23.8737C31.7281 23.899 31.6302 23.8498 31.5799 23.7264C31.9102 23.6218 32.2535 23.5482 32.6094 23.5055L32.3888 23.2845C32.0386 23.4222 31.6709 23.4713 31.2857 23.4318C29.9354 23.3837 28.6117 23.4328 27.3149 23.5791H27.1678C25.5233 23.7893 23.8811 23.8875 22.241 23.8737C21.0081 23.7392 19.807 23.5429 18.6378 23.2845C17.7955 23.3199 16.9621 23.2708 16.1376 23.1373C14.4091 23.2742 12.6933 23.2742 10.9902 23.1373C10.757 23.0418 10.5119 22.9682 10.2549 22.9163C10.4059 22.8408 10.5529 22.7672 10.6961 22.6954C10.9052 22.6646 11.1012 22.591 11.2844 22.4745C11.2043 22.3689 11.1063 22.2953 10.9902 22.2536H10.6961C10.6347 22.1472 10.5366 22.0736 10.402 22.0327C10.6079 21.9723 10.804 21.8986 10.9902 21.8118H11.1373C11.7145 21.8221 12.2538 21.7238 12.7551 21.5172H13.3433C13.6872 21.2904 14.0794 21.1923 14.5199 21.2226C16.844 20.9418 19.1971 20.7453 21.5792 20.6335C22.7493 20.4289 23.9258 20.2817 25.1088 20.1917C28.1102 20.1226 31.1006 19.9017 34.08 19.5289C34.3977 19.3822 34.6429 19.1613 34.8154 18.8662C35.0917 18.3494 35.5329 18.1531 36.139 18.2771H36.8744L37.6097 17.3934C37.9007 17.1478 38.2439 17.0496 38.6392 17.0988Z" fill="#FEF600"/>
<path d="M47.3162 34.4777V34.625C46.71 35.4047 46.0726 36.1655 45.4043 36.9078C46.7783 37.0865 48.151 37.2829 49.5223 37.4969C49.816 37.864 49.9631 38.2812 49.9635 38.7488C50.2935 40.3366 49.9994 41.8094 49.0811 43.1672C48.585 43.5616 48.0948 43.9542 47.6104 44.3454H47.3162C46.5271 44.8793 45.6447 45.1983 44.669 45.3027C42.8196 45.4409 40.9813 45.3672 39.1539 45.0818C39.0414 45.0921 38.9679 45.1411 38.9333 45.2291H38.4921V44.64H38.9333C39.7748 44.5814 40.6083 44.4587 41.4335 44.2718C42.064 44.1525 42.6033 43.8825 43.0512 43.4617C43.3589 43.165 43.6286 42.8214 43.8601 42.4308C43.9585 41.8197 43.885 41.2306 43.6395 40.6634C43.4885 40.4139 43.2923 40.2176 43.0512 40.0743C42.2334 39.8478 41.4001 39.7005 40.5511 39.6325C40.2974 39.582 40.2239 39.4347 40.3305 39.1906C41.1753 38.5161 41.9352 37.7797 42.61 36.9815C43.0646 36.3166 43.555 35.6785 44.0807 35.0668L44.3749 34.9196C44.4047 34.6922 44.5028 34.4957 44.669 34.3304C44.5477 34.2 44.4006 34.1509 44.2278 34.1832L38.345 34.1832C38.2662 33.717 38.3887 33.3244 38.7127 33.005C38.764 32.2946 39.0337 31.7055 39.5216 31.2376C39.5006 30.9781 39.5497 30.7326 39.6687 30.5012C39.9985 30.3578 40.3416 30.3086 40.6981 30.3539C43.273 30.3053 45.8221 30.3544 48.3457 30.5012C49.0741 30.3791 49.8095 30.3299 50.5518 30.3539C50.875 30.3405 50.924 30.4386 50.6988 30.6485C49.7618 31.6849 48.8794 32.765 48.0516 33.8886L47.3162 34.4777Z" fill="#FEF600"/>
<path d="M40.4988 39.5787C41.3521 39.6466 42.1896 39.7937 43.0115 40.0198C43.2538 40.1628 43.4509 40.3588 43.6027 40.6078H43.1593C43.0545 40.4749 42.9067 40.426 42.7159 40.4608C41.7747 40.5093 40.8385 40.4602 39.9076 40.3138C40.0953 40.198 40.2431 40.0509 40.351 39.8728L40.4988 39.5787Z" fill="#004684"/>
<path d="M38.7251 34.5801C38.7251 34.482 38.7744 34.433 38.873 34.433V34.139H44.194C44.3676 34.1068 44.5155 34.1558 44.6374 34.286C44.4704 34.451 44.3718 34.6471 44.3418 34.8741L44.0462 35.0211H43.7506C42.0255 35.0457 40.3011 35.0211 38.5773 34.9476C38.6885 34.8489 38.7379 34.7265 38.7251 34.5801Z" fill="#004684"/>
<path d="M38.873 43.8423C39.9187 43.8301 40.9533 43.7322 41.9769 43.5482C42.2417 43.5679 42.488 43.519 42.7159 43.4012H43.0115C42.5613 43.8213 42.0193 44.0907 41.3857 44.2098C40.5563 44.3964 39.7187 44.5189 38.873 44.5774V43.8423Z" fill="#004684"/>
<path fill-rule="evenodd" clip-rule="evenodd" d="M34.8822 4H35.1778C36.4135 5.32716 37.6945 6.60132 39.0208 7.82251L42.4203 11.0569C43.8451 12.3761 45.2246 13.7483 46.5589 15.1735C46.7013 15.2971 46.844 15.4212 46.9872 15.5457C47.2374 15.7634 47.4888 15.9823 47.7413 16.2026C48.9811 16.5197 49.1781 16.2502 48.3325 15.394C49.8475 15.3472 51.3503 15.4207 52.8406 15.6145C53.0727 15.4884 53.3191 15.3904 53.5796 15.3205C54.239 15.4303 54.9041 15.5038 55.575 15.541C56.175 15.8741 56.8154 16.0946 57.4965 16.2026C58.5724 16.7871 59.6564 17.3751 60.7482 17.9669C60.8662 18.034 60.9154 18.132 60.896 18.2609C61.5013 19.0851 61.9447 19.9917 62.2263 20.9807C61.9703 22.0763 61.3791 22.9585 60.4526 23.6271C58.9948 23.9602 57.5167 24.1562 56.0184 24.2152C57.4233 25.4412 58.7536 26.7398 60.0092 28.1112C60.5512 28.5522 61.0438 29.0423 61.4873 29.5814C62.3606 30.2286 63.1736 30.9637 63.9261 31.7867C64.0246 31.8847 64.0246 31.9827 63.9261 32.0807L53.9492 41.7105C53.3105 41.7839 52.67 41.8084 52.0277 41.784C52.0193 41.9471 51.9701 42.0941 51.8799 42.2251C51.1771 44.0274 49.9701 45.3995 48.2586 46.3416L48.1108 47.3707C43.7254 51.4633 39.4144 55.629 35.1778 59.8674H34.8822C34.2458 59.3322 33.6545 58.7442 33.1085 58.1032C28.9702 54.1829 24.8809 50.2134 20.8406 46.1946C15.8188 41.4936 10.8427 36.7399 5.91224 31.9337C8.10295 29.7793 10.32 27.6475 12.5635 25.5384C12.3903 25.4768 12.2425 25.3788 12.1201 25.2443C8.07505 25.0235 4.035 24.7538 0 24.4357V24.2887C1.69616 23.7099 3.37128 23.0728 5.0254 22.3774C3.98091 21.9254 2.94627 21.4597 1.92148 20.9807C2.32852 20.9408 2.72265 20.8673 3.10392 20.7602C6.97622 20.3186 10.8192 19.7059 14.6328 18.9225C16.3611 18.8144 18.0855 18.6674 19.806 18.4814C20.8165 17.6477 21.7527 16.7411 22.6143 15.7616C26.7075 11.837 30.7969 7.91648 34.8822 4ZM16.1108 25.0238C13.8 27.2976 11.4598 29.552 9.09006 31.7867C8.99151 31.8847 8.99151 31.9827 9.09006 32.0807C17.7435 40.3953 26.3655 48.6773 34.9561 56.927C38.7091 53.4397 42.4287 49.8868 46.1154 46.2681L42.4203 46.1211C41.6006 46.0668 40.8122 45.9442 40.0554 45.7535C39.7558 45.7773 39.4602 45.7528 39.1686 45.68C38.9829 45.6187 38.8843 45.4962 38.873 45.3125V45.1655C38.9077 45.0777 38.9816 45.0287 39.0947 45.0184C40.9312 45.3034 42.7787 45.3769 44.6374 45.239C45.6179 45.1347 46.5048 44.8163 47.2979 44.2833H47.5935C48.0804 43.8929 48.573 43.5009 49.0716 43.1072C49.9944 41.7518 50.2901 40.2816 49.9584 38.6966C49.958 38.2298 49.8102 37.8133 49.515 37.4469C48.1368 37.2333 46.7572 37.0372 45.3764 36.8589C46.048 36.1179 46.6886 35.3584 47.2979 34.5801V34.433C47.5443 34.2371 47.7905 34.0409 48.0369 33.845C48.8689 32.7233 49.7557 31.6451 50.6974 30.6105C50.9237 30.401 50.8745 30.3031 50.5496 30.3165C49.8036 30.2925 49.0646 30.3416 48.3325 30.4635C45.7963 30.3169 43.2344 30.268 40.6466 30.3165V30.1695H40.7944V29.5814C43.7743 29.4089 46.7304 29.4089 49.6628 29.5814C51.2896 29.4279 52.9154 29.4279 54.5404 29.5814C52.6884 31.7417 50.8655 33.9224 49.0716 36.1238C50.0774 36.258 51.0626 36.4785 52.0277 36.7853C52.5683 37.6882 52.8886 38.6684 52.9884 39.7257C54.3159 38.3808 55.6708 37.0576 57.0531 35.7562C58.3922 34.5223 59.6732 33.248 60.896 31.9337C58.9849 30.1553 57.1619 28.3176 55.4272 26.4205C54.3042 25.598 53.2696 24.667 52.3233 23.6271C51.1005 23.4918 49.8935 23.5653 48.702 23.8476C47.5387 23.7388 46.3809 23.6899 45.2286 23.7006C44.8549 23.8473 44.8549 23.9698 45.2286 24.0681C43.7986 24.1478 42.3697 24.2459 40.9422 24.3622C40.2751 24.5357 39.7824 24.9276 39.4642 25.5383C39.6303 25.5749 39.7781 25.6485 39.9076 25.7589C39.3614 26.1796 38.7948 26.5716 38.2078 26.935C37.9832 27.6488 37.5397 28.1879 36.8776 28.5522C36.6399 29.0333 36.3443 29.4744 35.9907 29.8754C34.9144 32.2616 34.3232 34.7609 34.2171 37.3734C34.4206 37.7048 34.6423 38.0232 34.8822 38.329C36.7156 38.5271 37.7009 39.5318 37.8383 41.3429C35.4056 41.7221 32.9915 41.624 30.5958 41.0489C29.4212 40.7693 28.288 40.3772 27.1963 39.8728V39.7257C29.6555 40.4223 32.1682 40.7655 34.7344 40.7549C34.8692 40.5729 34.8939 40.3767 34.8083 40.1668C34.3874 39.7769 33.9193 39.4829 33.4041 39.2847C32.9884 39.2776 32.5943 39.1796 32.2217 38.9906C32.0907 38.8694 32.0415 38.7223 32.0739 38.5496C31.7721 38.1484 31.5258 37.7073 31.3349 37.2264C31.4207 36.3708 31.5192 35.5376 31.6305 34.7271C31.6305 34.629 31.6797 34.5801 31.7783 34.5801C31.7421 34.0853 31.8407 33.6197 32.0739 33.1834C32.0635 33.0709 32.0143 32.9974 31.9261 32.9628C32.3155 32.1401 32.6605 31.3071 32.9607 30.4635C33.0666 30.008 33.2144 29.567 33.4041 29.1403C33.5514 29.153 33.6745 29.1039 33.7737 28.9933C33.9631 28.2916 34.382 27.8016 35.03 27.5231C35.03 27.425 35.0792 27.3761 35.1778 27.3761C35.3272 27.1009 35.4505 26.8068 35.5473 26.494C36.3081 25.6338 37.121 24.7271 37.9861 23.7741C38.6486 23.5101 39.3384 23.3875 40.0554 23.4066C40.154 23.4066 40.2032 23.3576 40.2032 23.2596C39.9822 23.1877 39.7851 23.0897 39.612 22.9655C42.1458 22.7386 44.7078 22.6406 47.2979 22.6715V22.5245C49.4881 22.3417 51.7052 22.2436 53.9492 22.2304H54.3926C55.128 22.16 55.864 22.0896 56.6005 22.0192L58.2355 21.8629C58.3867 21.8088 58.5372 21.7551 58.6872 21.7018C58.7706 21.6721 58.8538 21.6426 58.9369 21.6131C59.0483 21.5737 59.1594 21.5344 59.2702 21.4953L59.7136 21.4953C59.8453 21.4056 59.9931 21.3567 60.157 21.3483C60.0212 19.8431 59.2329 18.961 57.7921 18.7019C57.5728 18.269 57.2278 17.9749 56.7575 17.8198C55.5523 17.4332 54.3206 17.3107 53.0623 17.4523C52.7984 17.4811 52.6013 17.6036 52.4711 17.8198C50.5563 18.0482 48.6348 18.1952 46.7067 18.2609C46.1453 18.4055 45.5541 18.4545 44.933 18.4079C44.6081 18.129 44.2141 17.982 43.7506 17.9669C43.5927 17.8295 43.3957 17.7805 43.1593 17.8198C42.9863 17.6957 42.7891 17.5977 42.5681 17.5258C41.5793 17.4599 40.5939 17.3618 39.612 17.2318C39.3006 17.0894 38.9556 17.0404 38.5773 17.0847C38.5773 16.9867 38.6266 16.9377 38.7251 16.9377C39.2615 16.424 39.9266 16.179 40.7205 16.2026C42.1746 16.407 43.628 16.603 45.0808 16.7907C45.1611 16.7819 45.2103 16.7329 45.2286 16.6437C41.7383 13.4909 38.3142 10.2564 34.9561 6.94039C30.7053 11.1445 26.3944 15.261 22.0231 19.29C21.9063 19.4803 21.7585 19.6518 21.5797 19.8046C24.7661 19.4782 27.9684 19.2577 31.187 19.143C32.2106 18.9591 33.2453 18.8612 34.291 18.849H34.4388C34.7677 18.1949 35.3095 17.9499 36.0646 18.1139C36.4475 18.0328 36.5459 17.8368 36.3603 17.5258C36.7425 17.3817 37.1367 17.3327 37.5427 17.3788L36.8037 18.2609H36.0646C35.4555 18.1371 35.0121 18.3332 34.7344 18.849C34.561 19.1436 34.3146 19.3641 33.9954 19.5106C31.001 19.8827 27.9956 20.1032 24.9792 20.1721C23.7903 20.262 22.6078 20.409 21.4319 20.6132C19.0378 20.7248 16.6729 20.9209 14.3372 21.2013C13.8945 21.171 13.5004 21.2689 13.1547 21.4953H12.5635C12.0597 21.7016 11.5177 21.7997 10.9376 21.7894H10.7898C10.6027 21.8761 10.4056 21.9496 10.1986 22.0099C10.334 22.0508 10.4325 22.1243 10.4942 22.2304H10.7898C10.9065 22.272 11.005 22.3455 11.0854 22.4509C10.9014 22.5672 10.7043 22.6407 10.4942 22.6715C10.3503 22.7431 10.2025 22.8166 10.0508 22.892C10.3091 22.9438 10.5554 23.0173 10.7898 23.1125C12.5014 23.2493 14.2258 23.2493 15.963 23.1125C16.7916 23.2459 17.6292 23.2948 18.4757 23.2596C19.6508 23.5174 20.8579 23.7134 22.097 23.8476C23.7453 23.8614 25.3957 23.7634 27.0485 23.5536H27.1963C28.4997 23.4076 29.8299 23.3585 31.187 23.4066C31.5741 23.446 31.9437 23.397 32.2956 23.2596L32.5173 23.4801C32.1596 23.5227 31.8146 23.5962 31.4827 23.7006C31.5332 23.8238 31.6317 23.8729 31.7783 23.8476C32.2489 23.8229 32.3228 24.019 32 24.4357C31.7481 24.7111 31.4772 24.9561 31.187 25.1708C31.3223 24.8394 31.5193 24.5454 31.7783 24.2887H31.4827C29.5266 24.3006 27.5806 24.4476 25.6443 24.7297C23.9002 24.6758 22.1512 24.5288 20.3972 24.2887C20.2655 24.199 20.1177 24.15 19.9538 24.1417C19.0134 24.1203 18.0774 24.0959 17.1455 24.0682C16.8199 24.4169 16.4749 24.7355 16.1108 25.0238Z" fill="#004684"/>
</svg>
